USFL
nRows=135
nColumns=2
inDegrees=yes
endheader
time	med_gas_r	
4.36565	 58.516417	
4.43722	 58.479149	
4.50878	 58.379162	
4.58035	 58.423452	
4.65192	 58.417580	
4.72349	 58.480125	
4.79506	 58.488511	
4.86662	 58.471995	
4.93819	 58.412999	
5.00976	 58.420320	
5.08133	 58.392530	
5.1529	 58.373696	
5.22446	 58.327181	
5.29603	 58.316011	
5.3676	 58.344355	
5.43917	 58.350377	
5.51074	 58.358886	
5.5823	 58.234443	
5.65387	 58.346924	
5.72544	 58.380482	
5.79701	 58.298673	
5.86858	 58.335096	
5.94014	 58.223662	
6.01171	 57.978601	
6.08328	 57.913533	
6.15485	 53.924468	
6.22642	 53.502905	
6.29798	 53.311942	
6.36955	 53.026688	
6.44112	 53.543961	
6.51269	 53.496006	
6.58426	 53.156566	
6.65582	 52.707638	
6.72739	 49.396010	
6.79896	 49.082368	
6.87053	 48.652466	
6.9421	 48.129352	
7.01366	 48.168917	
7.08523	 48.133290	
7.1568	 48.280263	
7.22837	 48.245527	
7.29994	 48.271184	
7.3715	 48.338016	
7.44307	 48.468514	
7.51464	 48.591277	
7.58621	 48.494794	
7.65778	 48.480913	
7.72934	 48.514290	
7.80091	 48.421911	
7.87248	 48.417127	
7.94405	 48.522950	
8.01562	 48.421249	
8.08718	 48.399738	
8.15875	 48.390984	
8.23032	 48.505573	
8.30189	 48.644550	
8.37346	 48.796037	
8.44502	 48.730081	
8.51659	 48.629465	
8.58816	 48.705056	
8.65973	 48.576511	
8.7313	 48.572103	
8.80286	 48.602554	
8.87443	 48.535695	
8.946	 48.669393	
9.01757	 48.914978	
9.08914	 48.846366	
9.1607	 48.846878	
9.23227	 48.886565	
9.30384	 48.693595	
9.37541	 48.816349	
9.44698	 48.867695	
9.51854	 48.941915	
9.59011	 48.924340	
9.66168	 48.938763	
9.73325	 48.862747	
9.80482	 49.019225	
9.87638	 49.231372	
9.94795	 49.231598	
10.0195	 49.304588	
10.0911	 49.388366	
10.1627	 49.433330	
10.2342	 49.324426	
10.3058	 49.265540	
10.3774	 49.291914	
10.4489	 49.338288	
10.5205	 49.305487	
10.5921	 49.322291	
10.6636	 49.229633	
10.7352	 49.170207	
10.8068	 49.274224	
10.8783	 49.423615	
10.9499	 49.468259	
11.0215	 49.462280	
11.093	 49.359134	
11.1646	 49.357262	
11.2362	 49.322656	
11.3077	 49.377141	
11.3793	 49.387223	
11.4509	 49.423702	
11.5224	 49.394200	
11.594	 52.070421	
11.6656	 52.058586	
11.7372	 52.113859	
11.8087	 52.123151	
11.8803	 52.092802	
11.9519	 52.094928	
12.0234	 52.101166	
12.095	 52.090476	
12.1666	 53.375861	
12.2381	 53.401721	
12.3097	 53.356715	
12.3813	 53.634414	
12.4528	 54.028208	
12.5244	 54.058902	
12.596	 54.291330	
12.6675	 54.642180	
12.7391	 54.483818	
12.8107	 54.334277	
12.8822	 54.316076	
12.9538	 54.273013	
13.0254	 54.333878	
13.0969	 54.296116	
13.1685	 54.462427	
13.2401	 54.416239	
13.3116	 54.476503	
13.3832	 54.537897	
13.4548	 54.341828	
13.5264	 54.325654	
13.5979	 52.900338	
13.6695	 52.682596	
13.7411	 52.554891	
13.8126	 52.480719	
13.8842	 52.352161	
13.9558	 52.279827	
